<svg xmlns="http://www.w3.org/2000/svg" viewBox="0 0 400 400" width="400" height="400">
  <defs>
    <!-- Slack icon path from Simple Icons (24x24 viewBox) -->
    <g id="slack-icon">
      <path d="M5.042 15.165a2.528 2.528 0 0 1-2.52 2.523A2.528 2.528 0 0 1 0 15.165a2.527 2.527 0 0 1 2.522-2.52h2.52v2.52zM6.313 15.165a2.527 2.527 0 0 1 2.521-2.52 2.527 2.527 0 0 1 2.521 2.52v6.313A2.528 2.528 0 0 1 8.834 24a2.528 2.528 0 0 1-2.521-2.522v-6.313zM8.834 5.042a2.528 2.528 0 0 1-2.521-2.52A2.528 2.528 0 0 1 8.834 0a2.528 2.528 0 0 1 2.521 2.522v2.52H8.834zM8.834 6.313a2.528 2.528 0 0 1 2.521 2.521 2.528 2.528 0 0 1-2.521 2.521H2.522A2.528 2.528 0 0 1 0 8.834a2.528 2.528 0 0 1 2.522-2.521h6.312zM18.956 8.834a2.528 2.528 0 0 1 2.522-2.521A2.528 2.528 0 0 1 24 8.834a2.528 2.528 0 0 1-2.522 2.521h-2.522V8.834zM17.688 8.834a2.528 2.528 0 0 1-2.523 2.521 2.527 2.527 0 0 1-2.52-2.521V2.522A2.527 2.527 0 0 1 15.165 0a2.528 2.528 0 0 1 2.523 2.522v6.312zM15.165 18.956a2.528 2.528 0 0 1 2.523 2.522A2.528 2.528 0 0 1 15.165 24a2.527 2.527 0 0 1-2.52-2.522v-2.522h2.52zM15.165 17.688a2.527 2.527 0 0 1-2.52-2.523 2.526 2.526 0 0 1 2.52-2.52h6.313A2.527 2.527 0 0 1 24 15.165a2.528 2.528 0 0 1-2.522 2.523h-6.313z"/>
    </g>
    <!-- GitHub icon path from Simple Icons (24x24 viewBox) -->
    <g id="github-icon">
      <path d="M12 .297c-6.63 0-12 5.373-12 12 0 5.303 3.438 9.8 8.205 11.385.6.113.82-.258.82-.577 0-.285-.01-1.04-.015-2.04-3.338.724-4.042-1.61-4.042-1.61C4.422 18.07 3.633 17.7 3.633 17.7c-1.087-.744.084-.729.084-.729 1.205.084 1.838 1.236 1.838 1.236 1.07 1.835 2.809 1.305 3.495.998.108-.776.417-1.305.76-1.605-2.665-.3-5.466-1.332-5.466-5.93 0-1.31.465-2.38 1.235-3.22-.135-.303-.54-1.523.105-3.176 0 0 1.005-.322 3.3 1.23.96-.267 1.98-.399 3-.405 1.02.006 2.04.138 3 .405 2.28-1.552 3.285-1.23 3.285-1.23.645 1.653.24 2.873.12 3.176.765.84 1.23 1.91 1.23 3.22 0 4.61-2.805 5.625-5.475 5.92.42.36.81 1.096.81 2.22 0 1.606-.015 2.896-.015 3.286 0 .315.21.69.825.57C20.565 22.092 24 17.592 24 12.297c0-6.627-5.373-12-12-12"/>
    </g>
  </defs>

  <!-- Connecting lines (drawn first, behind everything) -->
  <line x1="200" y1="200" x2="200" y2="70" stroke="#cccccc" stroke-width="3"/>
  <line x1="200" y1="200" x2="87" y2="265" stroke="#cccccc" stroke-width="3"/>
  <line x1="200" y1="200" x2="313" y2="265" stroke="#cccccc" stroke-width="3"/>

  <!-- Center: "me" with white circle background -->
  <circle cx="200" cy="200" r="36" fill="white"/>
  <circle cx="200" cy="200" r="36" fill="#555"/>
  <text x="200" y="200" font-family="Georgia, serif" font-size="22" fill="white" text-anchor="middle" dominant-baseline="central">me</text>

  <!-- Top: Slack with white circle background -->
  <circle cx="200" cy="70" r="34" fill="white"/>
  <g transform="translate(200, 70)">
    <g transform="translate(-28, -28) scale(2.33)" fill="#4A154B">
      <use href="#slack-icon"/>
    </g>
  </g>

  <!-- Bottom-left: GitHub with white circle background -->
  <circle cx="87" cy="265" r="34" fill="white"/>
  <g transform="translate(87, 265)">
    <g transform="translate(-28, -28) scale(2.33)" fill="#24292e">
      <use href="#github-icon"/>
    </g>
  </g>

  <!-- Bottom-right: Papers with white circle background -->
  <circle cx="313" cy="265" r="34" fill="white"/>
  <g transform="translate(313, 265)">
    <g transform="translate(-24, -28)">
      <rect x="0" y="0" width="48" height="56" rx="4" fill="#d9534f"/>
      <path d="M32 0 L32 16 L48 16" fill="none" stroke="white" stroke-width="3"/>
      <line x1="8" y1="28" x2="40" y2="28" stroke="white" stroke-width="3"/>
      <line x1="8" y1="38" x2="36" y2="38" stroke="white" stroke-width="3"/>
      <line x1="8" y1="48" x2="28" y2="48" stroke="white" stroke-width="3"/>
    </g>
  </g>

</svg>
