<svg xmlns="http://www.w3.org/2000/svg" viewBox="0 0 800 300" width="800" height="300">
  <defs>
    <marker id="arrowhead" markerWidth="10" markerHeight="7" refX="9" refY="3.5" orient="auto">
      <polygon points="0 0, 10 3.5, 0 7" fill="#666"/>
    </marker>
  </defs>

  <!-- Background -->
  <rect width="800" height="300" fill="#ffffff"/>

  <!-- Left box: My World -->
  <rect x="20" y="20" width="240" height="260" rx="8" fill="#e8f4e8" stroke="#2d5a2d" stroke-width="2"/>
  <text x="140" y="50" font-family="Arial, sans-serif" font-size="16" font-weight="bold" fill="#2d5a2d" text-anchor="middle">My World</text>

  <!-- Right box: Literature -->
  <rect x="540" y="20" width="240" height="260" rx="8" fill="#e8e8f4" stroke="#2d2d5a" stroke-width="2"/>
  <text x="660" y="50" font-family="Arial, sans-serif" font-size="16" font-weight="bold" fill="#2d2d5a" text-anchor="middle">Literature</text>

  <!-- My World contents -->
  <rect x="80" y="80" width="120" height="36" rx="4" fill="#fff" stroke="#2d5a2d" stroke-width="1.5"/>
  <text x="140" y="104" font-family="Arial, sans-serif" font-size="14" fill="#333" text-anchor="middle">project</text>

  <rect x="40" y="160" width="80" height="28" rx="4" fill="#fff" stroke="#2d5a2d" stroke-width="1.5"/>
  <text x="80" y="179" font-family="Arial, sans-serif" font-size="11" fill="#333" text-anchor="middle">code</text>

  <rect x="130" y="160" width="80" height="28" rx="4" fill="#fff" stroke="#2d5a2d" stroke-width="1.5"/>
  <text x="170" y="179" font-family="Arial, sans-serif" font-size="11" fill="#333" text-anchor="middle">experiments</text>

  <rect x="40" y="210" width="80" height="28" rx="4" fill="#fff" stroke="#2d5a2d" stroke-width="1.5"/>
  <text x="80" y="229" font-family="Arial, sans-serif" font-size="11" fill="#333" text-anchor="middle">writing</text>

  <!-- Project to repos (dotted) -->
  <line x1="110" y1="116" x2="80" y2="160" stroke="#999" stroke-width="1.5" stroke-dasharray="4,3"/>
  <line x1="170" y1="116" x2="170" y2="160" stroke="#999" stroke-width="1.5" stroke-dasharray="4,3"/>
  <line x1="110" y1="116" x2="80" y2="210" stroke="#999" stroke-width="1.5" stroke-dasharray="4,3"/>

  <!-- Middle: Concepts (in no-man's land) -->
  <ellipse cx="400" cy="110" rx="60" ry="24" fill="#fafafa" stroke="#888" stroke-width="1.5"/>
  <text x="400" y="116" font-family="Arial, sans-serif" font-size="13" fill="#555" text-anchor="middle">concept 1</text>

  <ellipse cx="400" cy="190" rx="60" ry="24" fill="#fafafa" stroke="#888" stroke-width="1.5"/>
  <text x="400" y="196" font-family="Arial, sans-serif" font-size="13" fill="#555" text-anchor="middle">concept 2</text>

  <!-- Literature contents -->
  <rect x="590" y="95" width="100" height="30" rx="4" fill="#fff" stroke="#2d2d5a" stroke-width="1.5"/>
  <text x="640" y="115" font-family="Arial, sans-serif" font-size="13" fill="#333" text-anchor="middle">paper A</text>

  <rect x="590" y="175" width="100" height="30" rx="4" fill="#fff" stroke="#2d2d5a" stroke-width="1.5"/>
  <text x="640" y="195" font-family="Arial, sans-serif" font-size="13" fill="#333" text-anchor="middle">paper B</text>

  <!-- Project to concepts (thick) -->
  <line x1="200" y1="98" x2="340" y2="110" stroke="#2d5a2d" stroke-width="2.5" marker-end="url(#arrowhead)"/>
  <text x="270" y="92" font-family="Arial, sans-serif" font-size="11" fill="#2d5a2d" font-style="italic">applies</text>

  <line x1="200" y1="98" x2="340" y2="190" stroke="#2d5a2d" stroke-width="2.5" marker-end="url(#arrowhead)"/>
  <text x="255" y="155" font-family="Arial, sans-serif" font-size="11" fill="#2d5a2d" font-style="italic">applies</text>

  <!-- Papers to concepts -->
  <line x1="590" y1="110" x2="460" y2="110" stroke="#2d2d5a" stroke-width="2.5" marker-end="url(#arrowhead)"/>
  <text x="525" y="100" font-family="Arial, sans-serif" font-size="11" fill="#2d2d5a" font-style="italic">introduces</text>

  <line x1="590" y1="190" x2="460" y2="190" stroke="#2d2d5a" stroke-width="2.5" marker-end="url(#arrowhead)"/>
  <text x="525" y="180" font-family="Arial, sans-serif" font-size="11" fill="#2d2d5a" font-style="italic">introduces</text>

</svg>
